<?xml version="1.0" encoding="iso-8859-1"?>
<!-- Uploaded to: SVG Repo, www.svgrepo.com, Generator: SVG Repo Mixer Tools -->
<svg height="800px" width="800px" version="1.1" id="Layer_1" xmlns="http://www.w3.org/2000/svg" xmlns:xlink="http://www.w3.org/1999/xlink" 
	 viewBox="0 0 512 512" xml:space="preserve">
<path style="fill:#FFD890;" d="M501.801,461.431H57.213c-25.965,0-47.014-21.049-47.014-47.014V188.546
	c0-25.965,21.049-47.011,47.014-47.011h444.587V461.431z"/>
<path style="fill:#FF9839;" d="M501.801,346.041h-92.394c-24.61,0-44.559-19.95-44.559-44.559l0,0
	c0-24.61,19.95-44.559,44.559-44.559h92.394V346.041z"/>
<circle style="fill:#947C7C;" cx="409.814" cy="301.479" r="17.379"/>
<polygon style="fill:#FFD890;" points="419.481,50.57 362.388,67.371 435.08,104.921 "/>
<polygon style="fill:#BDD169;" points="362.388,67.371 110.359,141.535 445.589,141.535 435.08,104.921 "/>
<g>
	<path style="fill:#4C1D1D;" d="M108.89,131.336H57.213C25.665,131.336,0,157,0,188.546v225.871
		c0,31.547,25.665,57.213,57.213,57.213h444.587c5.632,0,10.199-4.566,10.199-10.199V141.535c0-5.633-4.567-10.199-10.199-10.199
		h-48.528l-23.989-83.579c-0.75-2.611-2.51-4.816-4.892-6.125s-5.184-1.615-7.792-0.847L108.89,131.336z M418.754,85.007
		l-9.362-4.835l-19.734-10.193l22.852-6.725L418.754,85.007z M361.341,78.311L391.9,94.096l34.59,17.867l5.561,19.372H181.148
		L361.341,78.311z M491.602,151.734v94.989h-82.194c-30.194,0-54.758,24.565-54.758,54.758s24.565,54.759,54.758,54.759h82.194
		v94.991H57.213c-20.3,0-36.815-16.515-36.815-36.815V188.546c0-20.298,16.515-36.812,36.815-36.812H491.602z M491.602,335.842
		h-82.194c-18.946,0-34.36-15.414-34.36-34.36c0-18.946,15.414-34.36,34.36-34.36h82.194V335.842z"/>
	<path style="fill:#4C1D1D;" d="M382.243,301.481c0,15.205,12.37,27.575,27.574,27.575c15.205,0,27.575-12.37,27.575-27.575
		c0-15.204-12.37-27.574-27.575-27.574C394.612,273.907,382.243,286.277,382.243,301.481z M409.817,294.306
		c3.957,0,7.176,3.219,7.176,7.175s-3.219,7.176-7.176,7.176c-3.956,0-7.175-3.219-7.175-7.176
		C402.642,297.524,405.861,294.306,409.817,294.306z"/>
	<path style="fill:#4C1D1D;" d="M270.819,418.527h-7.155c-5.632,0-10.199,4.566-10.199,10.199s4.567,10.199,10.199,10.199h7.155
		c5.632,0,10.199-4.566,10.199-10.199S276.452,418.527,270.819,418.527z"/>
	<path style="fill:#4C1D1D;" d="M468.074,418.527H314.767c-5.632,0-10.199,4.566-10.199,10.199s4.567,10.199,10.199,10.199h153.307
		c5.632,0,10.199-4.566,10.199-10.199S473.706,418.527,468.074,418.527z"/>
</g>
</svg>